<?xml version="1.0" encoding="iso-8859-1"?>
<!-- Generator: Adobe Illustrator 19.0.0, SVG Export Plug-In . SVG Version: 6.00 Build 0)  -->
<svg xmlns="http://www.w3.org/2000/svg" xmlns:xlink="http://www.w3.org/1999/xlink" version="1.1" id="Capa_1" x="0px" y="0px" viewBox="0 0 455.602 455.602" style="enable-background:new 0 0 455.602 455.602;" xml:space="preserve" width="512" height="512">
<g>
	<path style="fill:#082947;" d="M367.791,30.273c-2.928-2.93-7.678-2.929-10.606-0.001c-2.93,2.929-2.93,7.678-0.001,10.606   l21.213,21.214l10.607-10.605L367.791,30.273z"/>
	<path style="fill:#082947;" d="M432.937,79.862l-21.213-21.214l-10.607,10.605l21.213,21.214c2.929,2.93,7.678,2.929,10.606,0.001   C435.865,87.54,435.865,82.791,432.937,79.862z"/>
	<path style="fill:#FF6E1D;" d="M321.813,159.62c25.32,36.44,24.26,85.65-3.17,121.03c-26.75-4.49-55.19,3.56-75.83,24.21   c-26.15,26.14-32.11,64.81-17.93,96.69c-4.31,6.36-9.28,12.4-14.91,18.03c-45.43,45.42-117.52,47.89-165.85,7.4l-15.5-15.5   c-40.49-48.33-38.02-120.42,7.4-165.85c5.63-5.63,11.67-10.6,18.03-14.91c31.88,14.18,70.55,8.22,96.69-17.93   c20.65-20.64,28.7-49.08,24.21-75.83c35.38-27.43,84.59-28.49,121.03-3.17L321.813,159.62z"/>
	<polygon style="fill:#274B6D;" points="388.523,89.89 321.813,159.62 205.143,281.57 174.033,250.46 295.983,133.79 365.713,67.08    384.189,71.414  "/>
	<polygon style="fill:#F2484B;" points="423.783,53.03 388.523,89.89 365.713,67.08 402.573,31.82 420.249,35.354  "/>
	<path style="fill:#082947;" d="M439.694,51.264l-35.355-35.355c-2.929-2.929-2.929-7.677,0-10.607   c2.929-2.929,7.677-2.929,10.607,0L450.3,40.657c2.929,2.929,2.929,7.677,0,10.607C447.371,54.193,442.623,54.193,439.694,51.264z"/>
	<polygon style="fill:#FF6E1D;" points="427.323,0 399.033,28.28 427.323,56.57 455.602,28.28  "/>
	<path style="fill:#274B6D;" d="M122.293,364.42l-78.17,62.56c-2.78-2.31-5.49-4.79-8.1-7.4c-2.61-2.61-5.09-5.32-7.4-8.1   l62.56-78.17L122.293,364.42z"/>
	<path style="fill:#082947;" d="M88.063,294.602c-6.523,0-11.15-3.38-13.732-5.962c-2.929-2.929-2.929-7.678,0.001-10.606   c2.929-2.929,7.678-2.928,10.606,0.001c1.491,1.491,2.844,2.403,6.714,0.546c4.409-2.116,9.688-6.853,14.793-11.432   c5.89-5.284,11.979-10.747,18.32-13.791c11.966-5.742,20.054-0.294,23.812,3.463c2.929,2.93,2.929,7.678,0,10.607   c-2.93,2.928-7.678,2.928-10.607,0c-1.491-1.492-2.845-2.405-6.715-0.547c-4.409,2.116-9.688,6.853-14.794,11.433   c-5.889,5.283-11.979,10.747-18.319,13.79C94.398,293.9,91.034,294.602,88.063,294.602z"/>
	<path style="fill:#082947;" d="M172.266,383.468c-1.919,0-3.839-0.732-5.303-2.196c-3.759-3.758-9.205-11.848-3.464-23.812   c3.043-6.341,8.507-12.431,13.79-18.319c4.58-5.105,9.316-10.385,11.433-14.794c1.856-3.869,0.944-5.224-0.547-6.715   c-2.929-2.93-2.929-7.678,0-10.607c2.93-2.928,7.678-2.928,10.607,0c3.758,3.758,9.204,11.849,3.463,23.813   c-3.044,6.341-8.507,12.431-13.791,18.32c-4.579,5.104-9.315,10.384-11.432,14.793c-1.856,3.869-0.944,5.223,0.546,6.714   c2.93,2.929,2.93,7.678,0.001,10.606C176.104,382.735,174.184,383.468,172.266,383.468z"/>
	<path style="fill:#F2EBD9;" d="M163.718,330.497c-1.919,0-3.839-0.732-5.304-2.196l-31.112-31.112   c-2.929-2.93-2.929-7.678,0-10.607c2.93-2.928,7.678-2.928,10.607,0l31.112,31.112c2.929,2.93,2.929,7.678,0,10.607   C167.557,329.765,165.637,330.497,163.718,330.497z"/>
</g>















</svg>
